<svg width="74" height="75" viewBox="0 0 74 75" fill="none" xmlns="http://www.w3.org/2000/svg">
<g id="Group 3">
<g id="Group 4">
<path id="Vector" d="M72.8932 46.5686C67.9496 66.6686 47.8566 78.8871 28.0529 73.8765C8.22032 68.8661 -3.83532 48.5025 1.10852 28.4314C6.05207 8.33141 26.1159 -3.88715 45.9485 1.1235C65.7522 6.10456 77.837 26.4682 72.8932 46.5686Z" fill="url(#paint0_linear_1_7)"/>
<path id="Vector_2" d="M54.6169 32.8272C55.3396 27.8467 51.6107 25.1514 46.4653 23.3643L48.1419 16.5967L44.095 15.5713L42.4763 22.1631C41.4068 21.8994 40.3083 21.6358 39.2099 21.4014L40.8286 14.7803L36.7818 13.7549L35.1341 20.4932C34.238 20.2881 33.3708 20.083 32.5325 19.8779V19.8486L26.9247 18.4424L25.8552 22.8369C25.8552 22.8369 28.8614 23.54 28.8036 23.5693C30.4513 23.9795 30.7403 25.0928 30.6825 25.9717L28.7747 33.6768C28.8903 33.7061 29.0349 33.7354 29.2083 33.8233C29.0638 33.794 28.9192 33.7647 28.7747 33.7061L26.1153 44.4873C25.913 44.9854 25.3927 45.7471 24.2653 45.4541C24.2942 45.5127 21.3169 44.7217 21.3169 44.7217L19.2935 49.4385L24.5833 50.7862C25.5661 51.0499 26.52 51.2842 27.4739 51.5479L25.7974 58.3741L29.8442 59.3995L31.5208 52.6319C32.6192 52.9248 33.7177 53.2178 34.7583 53.4815L33.1107 60.2198L37.1575 61.2452L38.8341 54.419C45.7716 55.7374 50.9747 55.21 53.1427 48.8526C54.906 43.7549 53.056 40.7959 49.4138 38.8623C52.1021 38.2471 54.0966 36.46 54.6169 32.8272ZM45.338 46.0108C44.095 51.1084 35.5966 48.3545 32.8505 47.6514L35.0763 38.5987C37.8224 39.3018 46.6677 40.6787 45.338 46.0108ZM46.6099 32.7393C45.4536 37.3975 38.4005 35.0244 36.1169 34.4385L38.1403 26.2354C40.4239 26.8213 47.795 27.9053 46.6099 32.7393Z" fill="white"/>
</g>
</g>
<defs>
<linearGradient id="paint0_linear_1_7" x1="3698" y1="-1.8" x2="3698" y2="7499.25" gradientUnits="userSpaceOnUse">
<stop stop-color="#007DFE"/>
<stop offset="1" stop-color="#F7931A"/>
</linearGradient>
</defs>
</svg>
